<svg width="7" height="11" viewBox="0 0 7 11" fill="none" xmlns="http://www.w3.org/2000/svg">
<path d="M3.14602 10.854C3.19247 10.9006 3.24764 10.9375 3.30839 10.9627C3.36913 10.9879 3.43425 11.0009 3.50002 11.0009C3.56579 11.0009 3.63091 10.9879 3.69165 10.9627C3.7524 10.9375 3.80758 10.9006 3.85402 10.854L6.85402 7.854C6.94791 7.76011 7.00065 7.63278 7.00065 7.5C7.00065 7.36722 6.94791 7.23989 6.85402 7.146C6.76013 7.05211 6.6328 6.99937 6.50002 6.99937C6.36725 6.99937 6.23991 7.05211 6.14602 7.146L4.00002 9.293V0.5C4.00002 0.367392 3.94734 0.240215 3.85358 0.146447C3.75981 0.0526784 3.63263 0 3.50002 0C3.36741 0 3.24024 0.0526784 3.14647 0.146447C3.0527 0.240215 3.00002 0.367392 3.00002 0.5V9.293L0.854022 7.146C0.760135 7.05211 0.632797 6.99937 0.500021 6.99937C0.367246 6.99937 0.239908 7.05211 0.146021 7.146C0.0521347 7.23989 -0.000610352 7.36722 -0.000610352 7.5C-0.000610352 7.63278 0.0521347 7.76011 0.146021 7.854L3.14602 10.854Z" fill="#737373"/>
</svg>
